{"title":"Forbidden Planet(1951)MP-4[DaScubaDude]","uid":12349892,"size":1205347875,"categoryP":"video","categoryS":"movies","magnet":"?xt=urn:btih:21465c8475905e5f06d9caca944adae2bc7df0f9&amp;dn=Forbidden+Planet%281951%29MP-4%5BDaScubaDude%5D&amp;tr=udp%3A%2F%2Ftracker.openbittorrent.com%3A80&amp;tr=udp%3A%2F%2Fopen.demonii.com%3A1337&amp;tr=udp%3A%2F%2Ftracker.coppersurfer.tk%3A6969&amp;tr=udp%3A%2F%2Fexodus.desync.com%3A6969","seeders":4,"leechers":0,"uploader":"dascuba","files":1,"time":1441405685,"description":"\nContact the Filmmakers on IMDbPro Â»\nTop 5000\nForbidden Planet (1956)\nPassed  |  98 min  |  Action, Adventure, Family  |  15 March 1956 (USA)\n7.7 Your rating:   -/10   Ratings: 7.7/10 from 31,494 users   \nReviews: 284 user | 116 critic\nA starship crew goes to investigate the silence of a planet's colony only to find two survivors and a deadly secret that one of them has.\n\nDirector: Fred M. Wilcox (as Fred McLeod Wilcox)\nWriters: Cyril Hume (screen play), Irving Block (based on a story by), 2 more credits Â»\nStars: Walter Pidgeon, Anne Francis, Leslie Nielsen \n\nGeneral\nComplete name                    : C:Forbidden PlanetFORBIDDEN_PLANET_Title1.mp4\nFormat                                   : MPEG-4\nFormat profile                           : Base Media\nCodec ID                                 : isom\nFile size                                : 1.12 GiB\nDuration                                 : 1h 38mn\nOverall bit rate mode                    : Constant\nOverall bit rate                         : 1 634 Kbps\nMovie name                               : FORBIDDEN_PLANET\nGenre                                    : Science_Fiction\nWriting application                      : Lavf54.6.100\n\nVideo\nID                                       : 1\nFormat                                   : MPEG-4 Visual\nFormat settings, BVOP                    : No\nFormat settings, QPel                    : No\nFormat settings, GMC                     : No warppoints\nFormat settings, Matrix                  : Default (H.263)\nCodec ID                                 : 20\nDuration                                 : 1h 38mn\nBit rate mode                            : Constant\nBit rate                                 : 1 500 Kbps\nWidth                                    : 720 pixels\nHeight                                   : 404 pixels\nDisplay aspect ratio                     : 16:9\nFrame rate mode                          : Constant\nFrame rate                               : 29.970 fps\nColor space                              : YUV\nChroma subsampling                       : 4:2:0\nBit depth                                : 8 bits\nScan type                                : Progressive\nCompression mode                         : Lossy\nBits/(Pixel*Frame)                       : 0.172\nStream size                              : 1.03 GiB (92%)\nWriting library                          : Lavc54.23.100\n\nAudio\nID                                       : 2\nFormat                                   : MPEG Audio\nFormat version                           : Version 1\nFormat profile                           : Layer 3\nCodec ID                                 : 6B\nDuration                                 : 1h 38mn\nBit rate mode                            : Constant\nBit rate                                 : 128 Kbps\nChannel(s)                               : 2 channels\nSampling rate                            : 44.1 KHz\nCompression mode                         : Lossy\nStream size                              : 90.0 MiB (8%)\nWriting library                          : LAME3.99.5","torrent":{"xt":"urn:btih:21465c8475905e5f06d9caca944adae2bc7df0f9","amp;dn":"Forbidden+Planet%281951%29MP-4%5BDaScubaDude%5D","amp;tr":["udp%3A%2F%2Ftracker.openbittorrent.com%3A80","udp%3A%2F%2Fopen.demonii.com%3A1337","udp%3A%2F%2Ftracker.coppersurfer.tk%3A6969","udp%3A%2F%2Fexodus.desync.com%3A6969"],"infoHash":"21465c8475905e5f06d9caca944adae2bc7df0f9","infoHashBuffer":{"type":"Buffer","data":[33,70,92,132,117,144,94,95,6,217,202,202,148,74,218,226,188,125,240,249]},"announce":[],"urlList":[]}}